<?xml version="1.0" encoding="UTF-8" standalone="no"?>
<!-- Created with Inkscape (http://www.inkscape.org/) -->

<svg
   xmlns:dc="http://purl.org/dc/elements/1.1/"
   xmlns:cc="http://creativecommons.org/ns#"
   xmlns:rdf="http://www.w3.org/1999/02/22-rdf-syntax-ns#"
   xmlns:svg="http://www.w3.org/2000/svg"
   xmlns="http://www.w3.org/2000/svg"
   xmlns:sodipodi="http://sodipodi.sourceforge.net/DTD/sodipodi-0.dtd"
   xmlns:inkscape="http://www.inkscape.org/namespaces/inkscape"
   width="59.93528mm"
   height="34.616661mm"
   viewBox="0 0 212.3691 122.65746"
   id="svg5842"
   version="1.1"
   inkscape:version="0.91 r13725"
   sodipodi:docname="cloud.svg">
  <defs
     id="defs5844" />
  <sodipodi:namedview
     id="base"
     pagecolor="#ffffff"
     bordercolor="#666666"
     borderopacity="1.0"
     inkscape:pageopacity="0.0"
     inkscape:pageshadow="2"
     inkscape:zoom="0.35"
     inkscape:cx="-170.24402"
     inkscape:cy="-561.52841"
     inkscape:document-units="px"
     inkscape:current-layer="layer1"
     showgrid="false"
     fit-margin-top="0"
     fit-margin-left="0"
     fit-margin-right="0"
     fit-margin-bottom="0"
     inkscape:window-width="1215"
     inkscape:window-height="1000"
     inkscape:window-x="65"
     inkscape:window-y="24"
     inkscape:window-maximized="1" />
  <metadata
     id="metadata5847">
    <rdf:RDF>
      <cc:Work
         rdf:about="">
        <dc:format>image/svg+xml</dc:format>
        <dc:type
           rdf:resource="http://purl.org/dc/dcmitype/StillImage" />
        <dc:title></dc:title>
      </cc:Work>
    </rdf:RDF>
  </metadata>
  <g
     inkscape:label="Layer 1"
     inkscape:groupmode="layer"
     id="layer1"
     transform="translate(-65.24402,151.82366)">
    <g
       id="g4347"
       transform="matrix(1.6727245,0,0,1.4598602,64.357476,-183.92599)"
       style="opacity:0.95;fill:#36d9ff;fill-opacity:1">
      <path
         id="path4349"
         d="m 110.01,81.1 c -1.07,0 -2.13,-0.17 -3.17,-0.51 -0.73,-0.24 -1.48,-0.36 -2.24,-0.36 -10.656414,3.291132 -9.501051,16.315727 -21.92,16.63 -3.38,0 -6.61,-1.08 -9.33,-3.14 -1.3,-0.98 -2.83,-1.46 -4.36,-1.46 -1.63,0 -3.25,0.55 -4.58,1.63 -3.91,3.19 -8.63,4.87 -13.68,4.87 -8.29,0 -15.95,-4.86 -19.52,-12.39 -1.21,-2.54 -3.77,-4.14 -6.54,-4.14 -0.27,0 -0.55,0.01 -0.83,0.05 -0.62,0.07 -1.16,0.1 -1.66,0.1 -7.95,0 -14.41,-6.47 -14.41,-14.41 0,-7.67 6.01,-13.99 13.69,-14.37 3.58,-0.18 6.49,-2.95 6.85,-6.52 0.64,-6.5 6.07,-11.41 12.61,-11.41 2,0 3.94,0.47 5.75,1.4 1.05,0.54 2.17,0.79 3.29,0.79 7.365037,-1.621847 10.212241,-8.497872 17.95,-8.63 11.066314,-1.924024 13.051979,14.103103 21.27,14.29 0.46,0 0.93,-0.05 1.4,-0.14 0.67,-0.13 1.33,-0.19 1.98,-0.19 11.74044,-0.127004 8.36139,17.17167 17.46,17.47 15.08904,2.353179 11.03868,20.104391 -0.01,20.44 z"
         inkscape:connector-curvature="0"
         style="fill:#36d9ff;fill-opacity:1"
         sodipodi:nodetypes="cccccscscscssccscccccccc" />
      <path
         id="path4351"
         d="m 110.01,53.41 c 0,-9.65 -7.82,-17.46 -17.47,-17.46 -1.15,0 -2.28,0.11 -3.37,0.33 C 85.73,27.9 77.51,21.99 67.9,21.99 c -7.27,0 -13.73,3.38 -17.95,8.64 -2.71,-1.39 -5.78,-2.18 -9.03,-2.18 -10.33,0 -18.82,7.87 -19.82,17.94 -11.45,0.57 -20.57,10 -20.57,21.6 0,11.96 9.69,21.65 21.65,21.65 0.84,0 1.67,-0.06 2.49,-0.15 4.63,9.76 14.54,16.52 26.06,16.52 6.93,0 13.29,-2.44 18.26,-6.5 3.81,2.87 8.54,4.6 13.7,4.6 10.45,0 19.23,-7.04 21.92,-16.63 1.7,0.56 3.52,0.87 5.41,0.87 9.65,0 17.47,-7.82 17.47,-17.47 -0.01,-9.66 -7.83,-17.47 -17.48,-17.47 z"
         inkscape:connector-curvature="0"
         style="fill:#36d9ff;fill-opacity:1"
         sodipodi:nodetypes="cscscscsscscscscc" />
    </g>
  </g>
</svg>
