<svg
    xmlns:dc="http://purl.org/dc/elements/1.1/"
    xmlns:cc="http://creativecommons.org/ns#"
    xmlns:rdf="http://www.w3.org/1999/02/22-rdf-syntax-ns#"
    xmlns:svg="http://www.w3.org/2000/svg"
    xmlns="http://www.w3.org/2000/svg"
    version="1.1"
    width="2000"
    height="470">

    <svg class="slingshot-back">

        <rect
            class="wood"
            width="12"
            height="64"
            x="141"
            y="361"
            transform="rotate(11, 147, 367)" />
        <rect
            class="elastic"
            width="36"
            height="8"
            x="143"
            y="363"
            transform="rotate(115, 147, 367)" />
    </svg>

    <circle class="ball" cx="133" cy="377" r="13" />
    <circle class="ball" cx="100" cy="457" r="13" />
    <circle class="ball" cx="70" cy="457" r="13" />
    <circle class="ball" cx="40" cy="457" r="13" />


    <svg class="slingshot-front">
        <rect
            class="elastic"
            width="36"
            height="8"
            x="115"
            y="363"
            transform="rotate(424, 119, 367)" />
        <rect
            class="wood"
            width="12"
            height="70"
            x="113"
            y="361"
            transform="rotate(-11, 119, 367)" />
        <rect
            class="wood"
            width="17"
            height="50"
            x="125"
            y="420" />

    </svg>

    <!-- Operations -->
    <g class="box box-large" transform="translate(680, 366) rotate(0)">
        <rect width="230" height="24" x="-115" y="-12"/>
        <text width="230" height="24">Operations</text>
    </g>

    <g class="box box-small" transform="translate(765, 442) rotate(90)">
        <rect width="50" height="20" x="-25" y="-9"/>
        <text width="50" height="20">CI</text>
    </g>

    <g class="box box-small" transform="translate(735, 442) rotate(90)">
        <rect width="50" height="20" x="-25" y="-9"/>
        <text width="50" height="20">Ansible</text>
    </g>

    <g class="box box-small" transform="translate(730, 389) rotate(0)">
        <rect width="100" height="18" x="-50" y="-9"/>
        <text width="100" height="18">Load Balancing</text>
    </g>

    <g class="box box-small" transform="translate(748, 409) rotate(0)">
        <rect width="60" height="18" x="-30" y="-9"/>
        <text width="60" height="18">HTTP</text>
    </g>

    <g class="box box-small" transform="translate(660, 425) rotate(90)">
        <rect width="88" height="18" x="-44" y="-9" />
        <text width="88" height="18">Debian</text>
    </g>

    <g class="box box-small" transform="translate(621, 434) rotate(90)">
        <rect width="68" height="18" x="-34" y="-9" />
        <text width="68" height="18">Apache</text>
    </g>

    <g class="box box-small" transform="translate(590, 434) rotate(270)">
        <rect width="68" height="18" x="-34" y="-9" />
        <text width="68" height="18">Postgres</text>
    </g>

    <g class="box box-small" transform="translate(605, 389) rotate(0)">
        <rect width="50" height="18" x="-25" y="-9"/>
        <text width="50" height="18">NGINX</text>
    </g>

    <!-- Backend -->
    <g class="box box-large" transform="translate(685, 269) rotate(0)">
        <rect width="190" height="24" x="-95" y="-12"/>
        <text width="190" height="24">Backend</text>
    </g>

    <g class="box box-small" transform="translate(600, 318) rotate(90)">
        <rect width="70" height="18" x="-35" y="-9" />
        <text width="70" height="18">Node.js</text>
    </g>

    <g class="box box-small" transform="translate(650, 318) rotate(90)">
        <rect width="70" height="18" x="-35" y="-9" />
        <text width="70" height="18">Python</text>
    </g>

    <g class="box box-small" transform="translate(690, 318) rotate(90)">
        <rect width="70" height="18" x="-35" y="-9" />
        <text width="70" height="18">JAVA</text>
    </g>

    <g class="box box-small" transform="translate(730, 318) rotate(90)">
        <rect width="70" height="18" x="-35" y="-9" />
        <text width="70" height="18">SQL</text>
    </g>

    <!-- Frontend -->

    <g class="box box-large" transform="translate(665, 169) rotate(0)">
        <rect width="130" height="24" x="-65" y="-12"/>
        <text width="150" height="24">Frontend</text>
    </g>

    <g class="box box-small" transform="translate(610, 218) rotate(90)">
        <rect width="70" height="18" x="-35" y="-9" />
        <text width="70" height="18">Javascript</text>
    </g>

    <g class="box box-small" transform="translate(645, 218) rotate(90)">
        <rect width="70" height="18" x="-35" y="-9" />
        <text width="70" height="18">CSS</text>
    </g>

    <g class="box box-small" transform="translate(685, 218) rotate(270)">
        <rect width="70" height="18" x="-35" y="-9" />
        <text width="70" height="18">HTML</text>
    </g>

    <g class="box box-small" transform="translate(720, 218) rotate(90)">
        <rect width="70" height="18" x="-35" y="-9" />
        <text width="70" height="18">Pixi.js</text>
    </g>

    <!-- Enemy -->

    <g class="enemy" transform="translate(770, 333) rotate(0)">
        <path class="body" d="m 22.992877,4.0456208 c 2.8823,-10.9705 -3.2301,-21.8966008 -14.1340006,-23.9020008 -23.4579994,-4.3105 -33.7735994,16.0210008 -32.0604994,31.1355 0,5.0394 10.4192,9.1316 23.27300029,9.1316 12.04719971,0 21.95949971,-3.5964 23.15089971,-8.1992 0.0814,-0.3071 0.1221,-0.6179 0.1221,-0.9324 0,-2.3975992 -1.5281,-2.7601992 -0.3515,-7.2334992 z"/>
        <path class="sweat" d="m 14.866291,4.4642065 c -0.2294,1.4652 0.2331,3.3485 1.998,3.4743 1.7723,0.1258 2.997,-1.2247 3.1524,-3.3411 0.2442,-3.1487 -1.702,-6.8561 -2.146,-6.8857 -0.4403,-0.0296 -2.479,3.24120001 -3.0044,6.7525"/>
        <path class="mouth" d="m 5.3017916,5.0414065 c -0.1295,0.4662 -0.5587,0.7696 -1.0175,0.7696 -0.0999,0 -0.1961,-0.0148 -0.2923,-0.0407 -6.5564,-1.8944 -13.5013,-2.5419 -13.5716,-2.5456 -0.5808996,-0.0592 -1.0137996,-0.5698 -0.9619996,-1.1544 0.0555,-0.5846 0.5623996,-1.0175 1.1543996,-0.962 0.2923,0.0222 7.2113,0.6697 13.9638,2.6233 0.5661,0.1591 0.888,0.7474 0.7252,1.3098 z"/>
        <path class="eye eye--left" d="m -10.227108,-8.7410935 c 0.8398996,-1.6760995 2.6602996,-2.4753005 4.0625996,-1.7907995 1.3949,0.6881995 1.8537,2.6010995 1.0138,4.2771995 -0.8399,1.6761 -2.6529,2.4716 -4.0589,1.7834 -1.3948996,-0.6845 -1.8537006,-2.6011 -1.0174996,-4.2698 z"/>
        <path class="eye eye--right" d="m 9.3828912,-4.3306935 c -0.4032996,1.8722 -1.9979996,3.1302001 -3.5704996,2.8046001 -1.5799,-0.3293 -2.5271,-2.1127001 -2.1312,-3.9923001 0.4033,-1.8796 2.0017,-3.1339 3.5742,-2.8046 1.5688,0.3256 2.5270993,2.109 2.1274996,3.9923 z"/>
    </g>
</svg>