<svg
    xmlns:dc="http://purl.org/dc/elements/1.1/"
    xmlns:cc="http://creativecommons.org/ns#"
    xmlns:rdf="http://www.w3.org/1999/02/22-rdf-syntax-ns#"
    xmlns:svg="http://www.w3.org/2000/svg"
    xmlns="http://www.w3.org/2000/svg"
    version="1.1"
    width="2000"
    height="470">

    <svg class="slingshot-back">

        <rect
            class="wood"
            width="12"
            height="64"
            x="141"
            y="361"
            transform="rotate(11, 147, 367)" />
        <rect
            class="elastic"
            width="36"
            height="8"
            x="143"
            y="363"
            transform="rotate(115, 147, 367)" />
    </svg>

    <circle class="ball" cx="133" cy="377" r="13" />
    <circle class="ball" cx="70" cy="457" r="13" />
    <circle class="ball" cx="40" cy="457" r="13" />

    <svg class="slingshot-front">
        <rect
            class="elastic"
            width="36"
            height="8"
            x="115"
            y="363"
            transform="rotate(424, 119, 367)" />
        <rect
            class="wood"
            width="12"
            height="70"
            x="113"
            y="361"
            transform="rotate(-11, 119, 367)" />
        <rect
            class="wood"
            width="17"
            height="50"
            x="125"
            y="420" />

    </svg>

    <g class="box box-small" transform="translate(730, 434) rotate(90)">
        <rect width="70" height="25" x="-35" y="-12.5"/>
        <text width="70" height="25" text-anchor="middle" dominant-baseline="middle">Jenkins</text>
    </g>

    <g class="box box-small" transform="translate(680, 434) rotate(90)">
        <rect width="70" height="25" x="-35" y="-12.5" />
        <text width="70" height="25" text-anchor="middle" dominant-baseline="middle">Apache</text>
    </g>

    <g class="box box-small" transform="translate(705, 383) rotate(0)">
        <rect width="70" height="25" x="-35" y="-12.5"/>
        <text width="70" height="25" text-anchor="middle" dominant-baseline="middle">Linux</text>
    </g>

    <g class="box box-small" transform="translate(708, 330) rotate(90)">
        <rect width="70" height="25" x="-35" y="-12.5"/>
        <text width="70" height="25" text-anchor="middle" dominant-baseline="middle">Something</text>
    </g>
</svg>